<svg xmlns="http://www.w3.org/2000/svg" width="144.551" height="134.024" viewBox="0 0 144.551 134.024">
  <g id="Group_46122" data-name="Group 46122" transform="translate(-227.741 -123.951) rotate(19)">
    <g id="Group_46079" data-name="Group 46079" transform="translate(286.807 32.338)">
      <path id="Path_28179" data-name="Path 28179" d="M403.767,90.6a117.557,117.557,0,0,0-5.48-19.239c-.07-.207-.143-.414-.215-.624.066-.086.135-.174.2-.264a11.118,11.118,0,0,0,1.425-9.55,57.384,57.384,0,0,0-4.481-11.607,10.7,10.7,0,0,0-9.691-6.35c-.125,0-.248,0-.368.006a14.783,14.783,0,0,0-.766-1.707,16.057,16.057,0,0,0-14.258-8.926,18.884,18.884,0,0,0-6.721,1.3c-1.374.364-5.241,1.4-10.58,3.009a39.791,39.791,0,0,0-10.911-2.107,30.591,30.591,0,0,0-4.5.3,12.145,12.145,0,0,0-3.142.575,10.279,10.279,0,0,0-3.613,1.791c-.18.117-.367.244-.579.393l-.426.309c-.252.19-.5.387-.721.571-.162.131-.323.268-.465.395-.244.215-.487.444-.741.69-.147.147-.3.291-.411.412-.233.242-.463.5-.723.8-.125.145-.248.287-.375.444-.213.26-.418.534-.641.837-.123.168-.246.334-.348.483-.2.289-.395.6-.592.917-.109.17-.217.342-.321.524-.176.3-.346.622-.542,1-.09.168-.18.338-.276.534-.174.358-.34.739-.485,1.075-.074.168-.149.338-.227.526l-.021.061c-4.3,1.761-8.592,3.658-12.684,5.669a13.691,13.691,0,0,0-1.7.97,11.108,11.108,0,0,0-.326-2.023,8.271,8.271,0,0,0-.9-2.123,10.742,10.742,0,0,0-9.5-5.838c-.139,0-.409.006-.545.012a10.689,10.689,0,0,0-8.017,4.285,8.214,8.214,0,0,0-1.736,2.948,10.805,10.805,0,0,0-.043,6.709,10.017,10.017,0,0,0,.823,3.734,8.218,8.218,0,0,0,4.219,5.576q.191.493.434.979a3.824,3.824,0,0,0,.321.588l2.678,5.579c.575,1.284.991,2.293,1.292,3.071a10.042,10.042,0,0,0,7.147,12.119c.182.051.366.1.551.137a14.872,14.872,0,0,0,2.123,1.363,8.074,8.074,0,0,0,2.223.77c.215.08.434.166.63.229l9.147,23.993c.763,2.188,1.531,4.4,2.28,6.633a15.481,15.481,0,0,0,2.381,4.979,11.917,11.917,0,0,0,4.047,3.748,14.792,14.792,0,0,0,7.878,2.147,19.136,19.136,0,0,0,3.294-.3c1.544-.285,37.921-7.136,58.458-21.827a16.935,16.935,0,0,0,7.462-13.311A13.017,13.017,0,0,0,403.767,90.6ZM387.585,49.288h0a8.064,8.064,0,0,1,.086,1.185A8.245,8.245,0,0,0,387.585,49.288Z" transform="translate(-286.807 -32.338)" fill="#09090d"/>
      <g id="Group_46078" data-name="Group 46078" transform="translate(8.195 7.409)">
        <g id="Group_46077" data-name="Group 46077">
          <g id="Group_45942" data-name="Group 45942" transform="translate(84.489 10.626)">
            <g id="Group_45941" data-name="Group 45941">
              <path id="Path_28180" data-name="Path 28180" d="M334.906,42.968a6.569,6.569,0,0,0-.674.409c.819-.252,4.389-1.541,5.2-1.673,0,0,2.064-.847,3.151,1.628a49.966,49.966,0,0,1,3.912,10.09s.954,3.083-1.216,3.095a41.138,41.138,0,0,1-4.647,1.441l-5.722-14.989" transform="translate(-334.217 -41.564)" fill="#ffad00"/>
            </g>
            <path id="Path_28181" data-name="Path 28181" d="M335.681,46.421a5.465,5.465,0,0,0,.751-1.193c.119-.2.258-.4.383-.6s.244-.4.373-.6a4.157,4.157,0,0,1,.952-1.077,1.53,1.53,0,0,1,.68-.291,1.267,1.267,0,0,1,.747.109,1.112,1.112,0,0,1,.524.559,2.119,2.119,0,0,1,.182.721,4.543,4.543,0,0,1-.123,1.447c-.027.117-.065.237-.1.354a1.4,1.4,0,0,1-.16.35,1.536,1.536,0,0,1-.555.526,2.79,2.79,0,0,1-.684.319c-.035,0-.068.01-.105.018-.016,0-.014,0-.037,0l-.021,0-.07,0a.663.663,0,0,1-.221-.082.95.95,0,0,1-.307-.3.882.882,0,0,1-.147-.4.372.372,0,0,1,.006-.123.177.177,0,0,1,.01-.068l0-.023.01-.037a.735.735,0,0,1,.131-.2c.094-.1.186-.176.266-.256s.184-.16.272-.242a3.97,3.97,0,0,1,1.253-.768,2.4,2.4,0,0,1,1.517-.08.95.95,0,0,1,.372.248,1.3,1.3,0,0,1,.221.36,1.825,1.825,0,0,1,.1.391c.01.063.014.129.018.19l.01.18a5.693,5.693,0,0,1-.064,1.462,2.186,2.186,0,0,1-.276.723,1.764,1.764,0,0,1-.24.319c-.088.092-.172.17-.266.256a4.144,4.144,0,0,1-.59.454,1.92,1.92,0,0,1-.716.309.762.762,0,0,1-.477-.057.724.724,0,0,1-.332-.364,1.161,1.161,0,0,1-.062-.2l-.016-.047-.008-.037,0-.023a.66.66,0,0,1-.008-.119.91.91,0,0,1,.143-.442,2,2,0,0,1,.579-.545,6.027,6.027,0,0,1,.635-.362,3.291,3.291,0,0,1,.7-.282,1.561,1.561,0,0,1,.805-.006,1.5,1.5,0,0,1,.686.434,1.9,1.9,0,0,1,.418.661,1.717,1.717,0,0,1,.106.788,3.619,3.619,0,0,1-.17.733,3.665,3.665,0,0,1-.741,1.288,2.425,2.425,0,0,1-.592.487,2.782,2.782,0,0,1-1.454.364,1.669,1.669,0,0,1-.761-.188,1.3,1.3,0,0,1-.321-.244.989.989,0,0,1-.139-.156.636.636,0,0,1-.1-.235.456.456,0,0,1,.014-.166.275.275,0,0,1,.014-.029l.01-.01.014-.037a.281.281,0,0,1,.047-.059.876.876,0,0,1,.172-.139c.115-.066.227-.117.327-.168l.074-.037c.018-.008.045-.029.066-.041l.152-.1c.1-.063.205-.125.313-.184a5.878,5.878,0,0,1,.651-.315,3.03,3.03,0,0,1,.714-.207,1.822,1.822,0,0,1,.385-.018,1.152,1.152,0,0,1,.193.027l.094.022c.031.008.063.02.092.029a1.811,1.811,0,0,1,.651.393.872.872,0,0,1,.225.344.96.96,0,0,1,.027.4,3,3,0,0,1-.078.358c-.025.113-.049.229-.068.342a3.694,3.694,0,0,1-.174.708,1.126,1.126,0,0,1-.485.579c-.225.115-.43.215-.649.313a3.023,3.023,0,0,1-.688.227,1.858,1.858,0,0,1-.727-.006,3.775,3.775,0,0,1-.676-.231,4.251,4.251,0,0,0-.677-.2l-.344-.076c-.115-.027-.227-.072-.342-.1a.684.684,0,0,0-.344-.01,2.972,2.972,0,0,1-.328.119,2.207,2.207,0,0,0,.323-.135.674.674,0,0,1,.358-.006c.117.025.231.063.344.084l.348.061a3.969,3.969,0,0,1,.694.176,3.912,3.912,0,0,0,.667.205,2.174,2.174,0,0,0,1.327-.256c.205-.1.422-.217.618-.33a.894.894,0,0,0,.385-.493,3.363,3.363,0,0,0,.149-.669c.029-.237.1-.483.129-.692a.572.572,0,0,0-.188-.538,1.543,1.543,0,0,0-.561-.323,1.783,1.783,0,0,0-1.271.164,6.582,6.582,0,0,0-.62.317c-.1.055-.2.115-.3.18l-.139.094c-.031.02-.051.037-.084.057a.884.884,0,0,0-.086.047c-.108.055-.213.108-.3.16a.493.493,0,0,0-.1.082c-.025.029-.008.006-.016.021a.565.565,0,0,0,.145.194,1.028,1.028,0,0,0,.244.182,1.416,1.416,0,0,0,.608.137,2.471,2.471,0,0,0,.651-.078,2.33,2.33,0,0,0,.6-.248,2.227,2.227,0,0,0,.5-.418,3.371,3.371,0,0,0,.649-1.155,3.783,3.783,0,0,0,.143-.649,1.444,1.444,0,0,0-.082-.6,1.483,1.483,0,0,0-.336-.524,1.072,1.072,0,0,0-.5-.315,1.743,1.743,0,0,0-1.2.258,6.844,6.844,0,0,0-.594.346,1.547,1.547,0,0,0-.45.416.425.425,0,0,0-.08.225.758.758,0,0,0,.063.25.281.281,0,0,0,.348.18,1.736,1.736,0,0,0,.569-.25,4.8,4.8,0,0,0,.534-.412c.084-.076.166-.152.241-.233a1.191,1.191,0,0,0,.192-.248,1.806,1.806,0,0,0,.223-.592,5.472,5.472,0,0,0,.067-1.359l-.008-.178c0-.055-.006-.1-.01-.158a1.837,1.837,0,0,0-.078-.3.623.623,0,0,0-.35-.389,1.1,1.1,0,0,0-.145-.037,1.468,1.468,0,0,0-.158-.023,1.774,1.774,0,0,0-.323-.006,2.325,2.325,0,0,0-.643.131,3.635,3.635,0,0,0-1.144.694c-.094.074-.178.151-.266.225s-.188.158-.25.225a.233.233,0,0,0-.082.2.579.579,0,0,0,.09.256.63.63,0,0,0,.194.2.3.3,0,0,0,.107.041c.014,0,.008,0,.02,0h.02l.012,0a.25.25,0,0,0,.068-.012,2.335,2.335,0,0,0,.6-.266,1.289,1.289,0,0,0,.473-.424,2.343,2.343,0,0,0,.242-.616,4.232,4.232,0,0,0,.141-1.363,1.9,1.9,0,0,0-.147-.647.911.911,0,0,0-.414-.465,1.078,1.078,0,0,0-.628-.115,1.4,1.4,0,0,0-.614.242,3.943,3.943,0,0,0-.948,1.007c-.137.194-.262.391-.393.588s-.276.385-.407.583a5.527,5.527,0,0,0-.362.6A1.911,1.911,0,0,1,335.681,46.421Z" transform="translate(-332.818 -40.529)" fill="#fff"/>
            <path id="Path_28182" data-name="Path 28182" d="M335.616,42.618a5.172,5.172,0,0,1,.927-.442,4.74,4.74,0,0,1,.993-.25,3.552,3.552,0,0,1,2.031.276,3.886,3.886,0,0,1,1.546,1.357,5.984,5.984,0,0,1,.516.893c.147.323.264.639.391.958.5,1.269,1,2.549,1.456,3.838.229.643.452,1.29.657,1.943.1.325.2.657.3.983a7.082,7.082,0,0,1,.217,1,8.823,8.823,0,0,0-.25-.989c-.1-.325-.211-.651-.324-.972-.223-.647-.459-1.29-.7-1.93-.483-1.282-.976-2.553-1.482-3.824-.127-.317-.248-.645-.383-.95a6.443,6.443,0,0,0-.5-.882,3.954,3.954,0,0,0-1.488-1.333,3.55,3.55,0,0,0-1.978-.3A5.4,5.4,0,0,0,335.616,42.618Z" transform="translate(-332.88 -41.257)" fill="#fff"/>
          </g>
          <g id="Group_45974" data-name="Group 45974" transform="translate(14.673)">
            <path id="Path_28183" data-name="Path 28183" d="M302.578,55.834s-6.657,2.968-2.95,11.722c0,0,9.9,23.3,18.271,48.29,0,0,1.109,6.039,8.227,4.815,0,0,36.155-6.684,55.386-20.584,0,0,5.736-3.366,3.208-11.261a174.713,174.713,0,0,0-18.283-48.258s-3.316-6.846-11.378-3.517C355.059,37.041,325.2,44.689,302.578,55.834Z" transform="translate(-298.505 -36.128)" fill="#a579f2"/>
            <path id="Path_28184" data-name="Path 28184" d="M329.43,36.436l-.063.4L351.8,98.378s6.44-5.142,3.447-9.847a102.086,102.086,0,0,0-5.787-20.338,284.993,284.993,0,0,0-12.047-26.1S335.179,36.163,329.43,36.436Z" transform="translate(-269.032 -35.842)" fill="#fff" opacity="0.25"/>
            <path id="Path_28185" data-name="Path 28185" d="M301.587,46.86l.315.264,26.8,62.534s-9.484,2.616-10.281-2.907l-19.19-50.4S297.053,50.4,301.587,46.86Z" transform="translate(-298.311 -25.879)" opacity="0.25"/>
            <g id="Group_45947" data-name="Group 45947" transform="translate(4.061 23.107)">
              <g id="Group_45944" data-name="Group 45944">
                <path id="Path_28186" data-name="Path 28186" d="M300.745,48.116l.437-.122.326,1-.444.137-.315-1" transform="translate(-300.426 -47.903)" fill="#858585"/>
                <g id="Group_45943" data-name="Group 45943">
                  <path id="Path_28187" data-name="Path 28187" d="M300.942,48.006a.865.865,0,0,0-.36.665.589.589,0,0,0,.762.54.541.541,0,0,1,.059-.006Z" transform="translate(-300.582 -47.892)" fill="#858585"/>
                  <path id="Path_28188" data-name="Path 28188" d="M300.98,47.948a.662.662,0,0,0-.09.014l.424,1.232a.652.652,0,0,0,.358-.622A.66.66,0,0,0,300.98,47.948Z" transform="translate(-300.287 -47.948)" fill="#858585"/>
                </g>
              </g>
              <g id="Group_45946" data-name="Group 45946" transform="translate(0.07)">
                <path id="Path_28189" data-name="Path 28189" d="M300.745,48.116l.437-.122.326,1-.444.137-.315-1" transform="translate(-300.496 -47.903)" fill="#babab9"/>
                <path id="Path_28190" data-name="Path 28190" d="M300.877,48.034l.3,1.009.158-.048-.366-.988Z" transform="translate(-300.369 -47.891)" fill="#a1a0a0"/>
                <g id="Group_45945" data-name="Group 45945">
                  <path id="Path_28191" data-name="Path 28191" d="M300.908,48.006a.646.646,0,0,0-.289.583.656.656,0,0,0,.692.622c.018,0,.037,0,.059-.006Z" transform="translate(-300.617 -47.892)" fill="#d4ced4"/>
                  <path id="Path_28192" data-name="Path 28192" d="M300.98,47.948a.662.662,0,0,0-.09.014l.424,1.232a.652.652,0,0,0,.358-.622A.66.66,0,0,0,300.98,47.948Z" transform="translate(-300.357 -47.948)" fill="#d4ced4"/>
                </g>
              </g>
            </g>
            <g id="Group_45952" data-name="Group 45952" transform="translate(62.106 3.915)">
              <g id="Group_45949" data-name="Group 45949">
                <path id="Path_28193" data-name="Path 28193" d="M330.436,38.3l.436-.12.326,1-.44.138-.318-.994" transform="translate(-330.117 -38.086)" fill="#858585"/>
                <g id="Group_45948" data-name="Group 45948">
                  <path id="Path_28194" data-name="Path 28194" d="M330.631,38.186a.88.88,0,0,0-.358.665.585.585,0,0,0,.759.542.5.5,0,0,0,.059-.006Z" transform="translate(-330.273 -38.077)" fill="#858585"/>
                  <path id="Path_28195" data-name="Path 28195" d="M330.672,38.132a.422.422,0,0,0-.09.01l.42,1.232a.639.639,0,0,0,.358-.622A.652.652,0,0,0,330.672,38.132Z" transform="translate(-329.977 -38.13)" fill="#858585"/>
                </g>
              </g>
              <g id="Group_45951" data-name="Group 45951" transform="translate(0.068)">
                <path id="Path_28196" data-name="Path 28196" d="M330.436,38.3l.436-.12.326,1-.44.138-.318-.994" transform="translate(-330.185 -38.086)" fill="#babab9"/>
                <path id="Path_28197" data-name="Path 28197" d="M330.567,38.211l.3,1.011.157-.048-.367-.985Z" transform="translate(-330.06 -38.074)" fill="#a1a0a0"/>
                <g id="Group_45950" data-name="Group 45950">
                  <path id="Path_28198" data-name="Path 28198" d="M330.6,38.186a.67.67,0,0,0-.289.583.658.658,0,0,0,.69.624.271.271,0,0,0,.059-.006Z" transform="translate(-330.308 -38.077)" fill="#d4ced4"/>
                  <path id="Path_28199" data-name="Path 28199" d="M330.672,38.132a.422.422,0,0,0-.09.01l.42,1.232a.639.639,0,0,0,.358-.622A.652.652,0,0,0,330.672,38.132Z" transform="translate(-330.046 -38.13)" fill="#d4ced4"/>
                </g>
              </g>
            </g>
            <g id="Group_45957" data-name="Group 45957" transform="translate(15.382 52.541)">
              <g id="Group_45954" data-name="Group 45954">
                <path id="Path_28200" data-name="Path 28200" d="M306.539,63.169l.433-.117.326,1-.442.139-.318-1" transform="translate(-306.215 -62.958)" fill="#858585"/>
                <g id="Group_45953" data-name="Group 45953">
                  <path id="Path_28201" data-name="Path 28201" d="M306.735,63.063a.861.861,0,0,0-.362.661.591.591,0,0,0,.764.542.527.527,0,0,1,.059-.008Z" transform="translate(-306.373 -62.947)" fill="#858585"/>
                  <path id="Path_28202" data-name="Path 28202" d="M306.772,63a.812.812,0,0,0-.088.012l.42,1.236A.66.66,0,0,0,306.772,63Z" transform="translate(-306.075 -63.004)" fill="#858585"/>
                </g>
              </g>
              <g id="Group_45956" data-name="Group 45956" transform="translate(0.072)">
                <path id="Path_28203" data-name="Path 28203" d="M306.539,63.169l.433-.117.326,1-.442.139-.318-1" transform="translate(-306.287 -62.958)" fill="#babab9"/>
                <path id="Path_28204" data-name="Path 28204" d="M306.669,63.09l.305,1.011.154-.048-.364-.989Z" transform="translate(-306.162 -62.947)" fill="#a1a0a0"/>
                <g id="Group_45955" data-name="Group 45955">
                  <path id="Path_28205" data-name="Path 28205" d="M306.7,63.063a.647.647,0,0,0-.289.577.656.656,0,0,0,.692.626.525.525,0,0,1,.059-.008Z" transform="translate(-306.409 -62.947)" fill="#d4ced4"/>
                  <path id="Path_28206" data-name="Path 28206" d="M306.772,63a.812.812,0,0,0-.088.012l.42,1.236A.66.66,0,0,0,306.772,63Z" transform="translate(-306.147 -63.004)" fill="#d4ced4"/>
                </g>
              </g>
            </g>
            <g id="Group_45962" data-name="Group 45962" transform="translate(26.985 79.75)">
              <g id="Group_45959" data-name="Group 45959">
                <path id="Path_28207" data-name="Path 28207" d="M312.471,77.087l.435-.121.322,1-.44.139-.317-1" transform="translate(-312.152 -76.878)" fill="#858585"/>
                <g id="Group_45958" data-name="Group 45958">
                  <path id="Path_28208" data-name="Path 28208" d="M312.664,76.978a.861.861,0,0,0-.356.667.592.592,0,0,0,.76.542c.02-.008.037-.01.053-.016Z" transform="translate(-312.308 -76.867)" fill="#858585"/>
                  <path id="Path_28209" data-name="Path 28209" d="M312.707,76.923a.238.238,0,0,0-.092.008l.424,1.237a.67.67,0,0,0,.36-.622A.654.654,0,0,0,312.707,76.923Z" transform="translate(-312.014 -76.921)" fill="#858585"/>
                </g>
              </g>
              <g id="Group_45961" data-name="Group 45961" transform="translate(0.066)">
                <path id="Path_28210" data-name="Path 28210" d="M312.471,77.087l.435-.121.322,1-.44.139-.317-1" transform="translate(-312.218 -76.878)" fill="#babab9"/>
                <path id="Path_28211" data-name="Path 28211" d="M312.6,77.007l.305,1.009.156-.048-.367-.991Z" transform="translate(-312.094 -76.868)" fill="#a1a0a0"/>
                <g id="Group_45960" data-name="Group 45960">
                  <path id="Path_28212" data-name="Path 28212" d="M312.632,76.978a.662.662,0,0,0,.4,1.208c.018-.006.037-.01.053-.016Z" transform="translate(-312.342 -76.867)" fill="#d4ced4"/>
                  <path id="Path_28213" data-name="Path 28213" d="M312.707,76.923a.238.238,0,0,0-.092.008l.424,1.237a.67.67,0,0,0,.36-.622A.654.654,0,0,0,312.707,76.923Z" transform="translate(-312.08 -76.921)" fill="#d4ced4"/>
                </g>
              </g>
            </g>
            <g id="Group_45967" data-name="Group 45967" transform="translate(73.103 32.237)">
              <g id="Group_45964" data-name="Group 45964">
                <path id="Path_28214" data-name="Path 28214" d="M336.065,52.786l.432-.119.326.993-.443.141-.318-.993" transform="translate(-335.74 -52.571)" fill="#858585"/>
                <g id="Group_45963" data-name="Group 45963">
                  <path id="Path_28215" data-name="Path 28215" d="M336.258,52.678a.883.883,0,0,0-.36.663.59.59,0,0,0,.762.542.3.3,0,0,1,.059-.006Z" transform="translate(-335.898 -52.56)" fill="#858585"/>
                  <path id="Path_28216" data-name="Path 28216" d="M336.295,52.618c-.029.006-.059.01-.088.014l.426,1.236a.662.662,0,0,0-.338-1.249Z" transform="translate(-335.603 -52.618)" fill="#858585"/>
                </g>
              </g>
              <g id="Group_45966" data-name="Group 45966" transform="translate(0.07)">
                <path id="Path_28217" data-name="Path 28217" d="M336.065,52.786l.432-.119.326.993-.443.141-.318-.993" transform="translate(-335.81 -52.571)" fill="#babab9"/>
                <path id="Path_28218" data-name="Path 28218" d="M336.193,52.7l.3,1.011.157-.051-.364-.985Z" transform="translate(-335.685 -52.559)" fill="#a1a0a0"/>
                <g id="Group_45965" data-name="Group 45965">
                  <path id="Path_28219" data-name="Path 28219" d="M336.224,52.678a.659.659,0,0,0,.4,1.2c.02,0,.041-.006.059-.006Z" transform="translate(-335.933 -52.56)" fill="#d4ced4"/>
                  <path id="Path_28220" data-name="Path 28220" d="M336.295,52.618c-.029.006-.059.01-.088.014l.426,1.236a.662.662,0,0,0-.338-1.249Z" transform="translate(-335.672 -52.618)" fill="#d4ced4"/>
                </g>
              </g>
            </g>
            <g id="Group_45972" data-name="Group 45972" transform="translate(81.364 59.565)">
              <g id="Group_45969" data-name="Group 45969">
                <path id="Path_28221" data-name="Path 28221" d="M340.287,66.761l.439-.119.324,1-.441.13-.318-.987" transform="translate(-339.968 -66.552)" fill="#858585"/>
                <g id="Group_45968" data-name="Group 45968">
                  <path id="Path_28222" data-name="Path 28222" d="M340.484,66.651a.9.9,0,0,0-.36.667.6.6,0,0,0,.763.547.146.146,0,0,1,.061-.01Z" transform="translate(-340.124 -66.544)" fill="#858585"/>
                  <path id="Path_28223" data-name="Path 28223" d="M340.521,66.6l-.088.008.422,1.239a.665.665,0,0,0,.36-.626A.656.656,0,0,0,340.521,66.6Z" transform="translate(-339.829 -66.596)" fill="#858585"/>
                </g>
              </g>
              <g id="Group_45971" data-name="Group 45971" transform="translate(0.07)">
                <path id="Path_28224" data-name="Path 28224" d="M340.287,66.761l.439-.119.324,1-.441.13-.318-.987" transform="translate(-340.038 -66.552)" fill="#babab9"/>
                <path id="Path_28225" data-name="Path 28225" d="M340.421,66.683l.3,1,.154-.05-.362-.98Z" transform="translate(-339.911 -66.539)" fill="#a1a0a0"/>
                <g id="Group_45970" data-name="Group 45970">
                  <path id="Path_28226" data-name="Path 28226" d="M340.45,66.651a.679.679,0,0,0-.289.59.669.669,0,0,0,.692.624.146.146,0,0,1,.061-.01Z" transform="translate(-340.16 -66.544)" fill="#d4ced4"/>
                  <path id="Path_28227" data-name="Path 28227" d="M340.521,66.6l-.088.008.422,1.239a.665.665,0,0,0,.36-.626A.656.656,0,0,0,340.521,66.6Z" transform="translate(-339.899 -66.596)" fill="#d4ced4"/>
                </g>
              </g>
            </g>
            <g id="Group_45973" data-name="Group 45973" transform="translate(65.223 2.704)" opacity="0.2">
              <path id="Path_28228" data-name="Path 28228" d="M331.867,37.511c1.138,2.111,2.2,4.252,3.259,6.406s2.066,4.32,3.05,6.506,1.939,4.381,2.876,6.586,1.818,4.438,2.69,6.672c.854,2.236,1.685,4.483,2.475,6.747s1.533,4.547,2.211,6.846,1.316,4.62,1.865,6.954,1.017,4.69,1.333,7.067a138.156,138.156,0,0,0-3.828-13.82c-.753-2.27-1.519-4.53-2.338-6.774s-1.644-4.491-2.514-6.715c-.85-2.235-1.738-4.453-2.637-6.668s-1.816-4.424-2.741-6.627Q334.782,44.073,331.867,37.511Z" transform="translate(-331.867 -37.511)" fill="#fff"/>
            </g>
          </g>
          <g id="Group_45991" data-name="Group 45991" transform="translate(81.273 9.945)">
            <path id="Path_28229" data-name="Path 28229" d="M336.844,41.215l-3.218,3.691s-2.08,2.117-.4,6.045a26.512,26.512,0,0,1,1.681,7.3s.317,3.785,6.24,2.7l3.976-.923A183.346,183.346,0,0,0,336.844,41.215Z" transform="translate(-332.572 -41.215)" fill="#2c2c3a"/>
            <path id="Path_28230" data-name="Path 28230" d="M336.936,41.471l-3.022,3.47s-1.959,1.988-.373,5.675a24.955,24.955,0,0,1,1.576,6.866s.3,3.556,5.871,2.536l3.736-.862A172.373,172.373,0,0,0,336.936,41.471Z" transform="translate(-332.238 -40.971)" fill="#434154"/>
            <g id="Group_45979" data-name="Group 45979" transform="translate(3.241 2.713)">
              <g id="Group_45976" data-name="Group 45976">
                <path id="Path_28231" data-name="Path 28231" d="M334.415,43.546l-.141-.427.987-.367.154.434-.978.359" transform="translate(-334.186 -42.461)" fill="#858585"/>
                <g id="Group_45975" data-name="Group 45975">
                  <path id="Path_28232" data-name="Path 28232" d="M334.294,43.393a.864.864,0,0,0,.682.326.588.588,0,0,0,.506-.784.491.491,0,0,1-.006-.057Z" transform="translate(-334.168 -42.339)" fill="#858585"/>
                  <path id="Path_28233" data-name="Path 28233" d="M334.233,43.328a.352.352,0,0,0,.018.088l1.212-.475a.658.658,0,0,0-1.23.387Z" transform="translate(-334.229 -42.603)" fill="#858585"/>
                </g>
              </g>
              <g id="Group_45978" data-name="Group 45978">
                <path id="Path_28234" data-name="Path 28234" d="M334.415,43.546l-.141-.427.987-.367.154.434-.978.359" transform="translate(-334.186 -42.461)" fill="#babab9"/>
                <path id="Path_28235" data-name="Path 28235" d="M334.321,43.277l1-.351-.057-.152-.972.406Z" transform="translate(-334.172 -42.44)" fill="#a1a0a0"/>
                <g id="Group_45977" data-name="Group 45977">
                  <path id="Path_28236" data-name="Path 28236" d="M334.294,43.393a.662.662,0,0,0,1.189-.457c0-.018-.006-.037-.006-.057Z" transform="translate(-334.168 -42.339)" fill="#d4ced4"/>
                  <path id="Path_28237" data-name="Path 28237" d="M334.233,43.328a.352.352,0,0,0,.018.088l1.212-.475a.658.658,0,0,0-1.23.387Z" transform="translate(-334.229 -42.603)" fill="#d4ced4"/>
                </g>
              </g>
            </g>
            <g id="Group_45984" data-name="Group 45984" transform="translate(8.602 16.964)">
              <g id="Group_45981" data-name="Group 45981" transform="translate(0)">
                <path id="Path_28238" data-name="Path 28238" d="M337,50.467l.164-.422.995.335-.153.437-.989-.337" transform="translate(-336.944 -49.747)" fill="#858585"/>
                <g id="Group_45980" data-name="Group 45980">
                  <path id="Path_28239" data-name="Path 28239" d="M336.972,50.214a.877.877,0,0,0,.319.684.588.588,0,0,0,.889-.285.233.233,0,0,1,.031-.051Z" transform="translate(-336.972 -49.585)" fill="#858585"/>
                  <path id="Path_28240" data-name="Path 28240" d="M337.051,50.187a.322.322,0,0,0-.045.078l1.241.4a.658.658,0,0,0-1.2-.475Z" transform="translate(-336.939 -49.892)" fill="#858585"/>
                </g>
              </g>
              <g id="Group_45983" data-name="Group 45983">
                <path id="Path_28241" data-name="Path 28241" d="M337,50.467l.164-.422.995.335-.153.437-.989-.337" transform="translate(-336.944 -49.747)" fill="#babab9"/>
                <path id="Path_28242" data-name="Path 28242" d="M337.051,50.18l.989.355.056-.151-1.009-.3Z" transform="translate(-336.896 -49.706)" fill="#a1a0a0"/>
                <g id="Group_45982" data-name="Group 45982">
                  <path id="Path_28243" data-name="Path 28243" d="M336.972,50.214a.67.67,0,0,0,.3.581.66.66,0,0,0,.913-.182.335.335,0,0,1,.031-.051Z" transform="translate(-336.972 -49.585)" fill="#d4ced4"/>
                  <path id="Path_28244" data-name="Path 28244" d="M337.051,50.187a.322.322,0,0,0-.045.078l1.241.4a.658.658,0,0,0-1.2-.475Z" transform="translate(-336.939 -49.892)" fill="#d4ced4"/>
                </g>
              </g>
            </g>
            <g id="Group_45985" data-name="Group 45985" transform="translate(0.843 2.844)">
              <path id="Path_28245" data-name="Path 28245" d="M337.849,42.67,333,47.288a7.892,7.892,0,0,0,.409,1.6l5.069-4.9C338.272,43.546,338.063,43.108,337.849,42.67Z" transform="translate(-333.003 -42.67)" fill="#f9b845"/>
              <path id="Path_28246" data-name="Path 28246" d="M339.3,45.092l-5.482,5.228c.11.5.229,1.054.336,1.666l5.74-5.552Q339.6,45.77,339.3,45.092Z" transform="translate(-332.225 -40.357)" fill="#f9b845"/>
              <path id="Path_28247" data-name="Path 28247" d="M340.605,47.759l-5.8,5.523.272.663a4.039,4.039,0,0,0,.76.334l5.331-5.151C340.983,48.674,340.8,48.216,340.605,47.759Z" transform="translate(-331.278 -37.81)" fill="#f9b845"/>
            </g>
            <g id="Group_45990" data-name="Group 45990" transform="translate(2.843 11.1)">
              <g id="Group_45987" data-name="Group 45987">
                <path id="Path_28248" data-name="Path 28248" d="M334.206,47.037l.443-.1.262,1.016-.448.11-.256-1.012" transform="translate(-333.854 -46.846)" fill="#858585"/>
                <g id="Group_45986" data-name="Group 45986">
                  <path id="Path_28249" data-name="Path 28249" d="M334.423,46.941a.855.855,0,0,0-.4.641.589.589,0,0,0,.727.585.557.557,0,0,1,.061,0Z" transform="translate(-334.026 -46.846)" fill="#858585"/>
                  <path id="Path_28250" data-name="Path 28250" d="M334.449,46.893a.373.373,0,0,0-.094.006l.35,1.257a.658.658,0,0,0-.256-1.263Z" transform="translate(-333.712 -46.893)" fill="#858585"/>
                </g>
              </g>
              <g id="Group_45989" data-name="Group 45989" transform="translate(0.074)">
                <path id="Path_28251" data-name="Path 28251" d="M334.206,47.037l.443-.1.262,1.016-.448.11-.256-1.012" transform="translate(-333.929 -46.846)" fill="#babab9"/>
                <path id="Path_28252" data-name="Path 28252" d="M334.338,46.971,334.584,48l.159-.037-.3-1.009Z" transform="translate(-333.803 -46.837)" fill="#a1a0a0"/>
                <g id="Group_45988" data-name="Group 45988">
                  <path id="Path_28253" data-name="Path 28253" d="M334.387,46.941a.632.632,0,0,0-.323.559.658.658,0,0,0,.653.667l.061,0Z" transform="translate(-334.064 -46.846)" fill="#d4ced4"/>
                  <path id="Path_28254" data-name="Path 28254" d="M334.449,46.893a.373.373,0,0,0-.094.006l.35,1.257a.658.658,0,0,0-.256-1.263Z" transform="translate(-333.786 -46.893)" fill="#d4ced4"/>
                </g>
              </g>
            </g>
          </g>
          <g id="Group_46066" data-name="Group 46066" transform="translate(31.382 10.88)">
            <path id="Path_28255" data-name="Path 28255" d="M316.642,44.85s-15.462,19.339-7.12,31.4c7.562,10.936,23.51,8.551,35.231-4.3l-2.684-18.963Z" transform="translate(-307.052 -38.678)" opacity="0.1"/>
            <path id="Path_28256" data-name="Path 28256" d="M348.09,59.962A19.284,19.284,0,1,1,327.819,41.72,19.285,19.285,0,0,1,348.09,59.962Z" transform="translate(-304.667 -41.693)" fill="#d1d1d1"/>
            <path id="Path_28257" data-name="Path 28257" d="M348.035,59.979a19.283,19.283,0,1,1-20.273-18.242A19.286,19.286,0,0,1,348.035,59.979Z" transform="translate(-304.718 -41.677)" fill="#fff" opacity="0.25"/>
            <g id="Group_45999" data-name="Group 45999" transform="translate(8.616 28.399)">
              <g id="Group_45993" data-name="Group 45993">
                <path id="Path_28258" data-name="Path 28258" d="M311.622,56.387l.438-.121.321,1-.44.136-.317-.995" transform="translate(-311.303 -56.175)" fill="#858585"/>
                <g id="Group_45992" data-name="Group 45992">
                  <path id="Path_28259" data-name="Path 28259" d="M311.817,56.277a.88.88,0,0,0-.358.665.586.586,0,0,0,.76.54l.059-.006Z" transform="translate(-311.459 -56.164)" fill="#858585"/>
                  <path id="Path_28260" data-name="Path 28260" d="M311.858,56.221a.359.359,0,0,0-.092.012l.426,1.232a.659.659,0,0,0-.334-1.243Z" transform="translate(-311.165 -56.219)" fill="#858585"/>
                </g>
              </g>
              <g id="Group_45998" data-name="Group 45998" transform="translate(0.068)">
                <path id="Path_28261" data-name="Path 28261" d="M311.622,56.387l.438-.121.321,1-.44.136-.317-.995" transform="translate(-311.371 -56.175)" fill="#babab9"/>
                <path id="Path_28262" data-name="Path 28262" d="M311.753,56.3l.3,1.006.158-.044-.365-.988Z" transform="translate(-311.246 -56.163)" fill="#a1a0a0"/>
                <g id="Group_45997" data-name="Group 45997">
                  <g id="Group_45996" data-name="Group 45996">
                    <g id="Group_45994" data-name="Group 45994" transform="translate(0 0.113)">
                      <path id="Path_28263" data-name="Path 28263" d="M311.784,56.277a.664.664,0,0,0-.289.585.653.653,0,0,0,.692.62.314.314,0,0,0,.059-.006Z" transform="translate(-311.494 -56.277)" fill="#59584f"/>
                    </g>
                    <g id="Group_45995" data-name="Group 45995" transform="translate(0.533)">
                      <path id="Path_28264" data-name="Path 28264" d="M311.858,56.221a.359.359,0,0,0-.092.012l.426,1.232a.659.659,0,0,0-.334-1.243Z" transform="translate(-311.766 -56.219)" fill="#59584f"/>
                    </g>
                  </g>
                </g>
              </g>
            </g>
            <path id="Path_28265" data-name="Path 28265" d="M343.249,58.155a16.191,16.191,0,1,1-17.018-15.317A16.2,16.2,0,0,1,343.249,58.155Z" transform="translate(-303.387 -40.621)" fill="#83838a"/>
            <path id="Path_28266" data-name="Path 28266" d="M343.421,58.072a16.2,16.2,0,1,1-17.032-15.327A16.2,16.2,0,0,1,343.421,58.072Z" transform="translate(-303.241 -40.71)" fill="#f6f5f5"/>
            <g id="Group_46024" data-name="Group 46024" transform="translate(14.689 7.926)">
              <path id="Path_28267" data-name="Path 28267" d="M333.084,54.525a9.266,9.266,0,1,1-9.744-8.764A9.267,9.267,0,0,1,333.084,54.525Z" transform="translate(-314.565 -45.747)" fill="#ffad00"/>
              <g id="Group_46022" data-name="Group 46022" transform="translate(2.914 3.257)" opacity="0.35">
                <g id="Group_46008" data-name="Group 46008" transform="translate(4.562)">
                  <g id="Group_46000" data-name="Group 46000" transform="translate(0 0.268)">
                    <line id="Line_1532" data-name="Line 1532" x2="0.568" y2="1.822" transform="translate(0 0.001)" fill="#fff"/>
                    <path id="Path_28268" data-name="Path 28268" d="M318.39,47.55a5.887,5.887,0,0,1,.348.891,5.75,5.75,0,0,1,.219.931,5.374,5.374,0,0,1-.35-.89A5.161,5.161,0,0,1,318.39,47.55Z" transform="translate(-318.389 -47.55)" fill="#fff"/>
                  </g>
                  <g id="Group_46001" data-name="Group 46001" transform="translate(2.283)">
                    <line id="Line_1533" data-name="Line 1533" x1="0.192" y2="1.902" transform="translate(0.009 0.001)" fill="#fff"/>
                    <path id="Path_28269" data-name="Path 28269" d="M319.758,47.413a5.644,5.644,0,0,1-.023.962,5.827,5.827,0,0,1-.168.94,5.762,5.762,0,0,1,.029-.956A5.435,5.435,0,0,1,319.758,47.413Z" transform="translate(-319.558 -47.413)" fill="#fff"/>
                  </g>
                  <g id="Group_46002" data-name="Group 46002" transform="translate(3.567 0.463)">
                    <line id="Line_1534" data-name="Line 1534" x1="0.752" y2="1.756" transform="translate(0.001)" fill="#fff"/>
                    <path id="Path_28270" data-name="Path 28270" d="M320.967,47.65a5.322,5.322,0,0,1-.313.905,5.751,5.751,0,0,1-.44.85,6.555,6.555,0,0,1,.753-1.756Z" transform="translate(-320.214 -47.65)" fill="#fff"/>
                  </g>
                  <g id="Group_46003" data-name="Group 46003" transform="translate(4.687 1.455)">
                    <line id="Line_1535" data-name="Line 1535" x1="1.243" y2="1.45" transform="translate(0 0.001)" fill="#fff"/>
                    <path id="Path_28271" data-name="Path 28271" d="M322.03,48.157a5.964,5.964,0,0,1-.567.77,6.341,6.341,0,0,1-.676.68,5.408,5.408,0,0,1,.569-.774A5.8,5.8,0,0,1,322.03,48.157Z" transform="translate(-320.787 -48.157)" fill="#fff"/>
                  </g>
                  <g id="Group_46004" data-name="Group 46004" transform="translate(5.547 2.881)">
                    <line id="Line_1536" data-name="Line 1536" x1="1.623" y2="1.009" fill="#fff"/>
                    <path id="Path_28272" data-name="Path 28272" d="M322.85,48.887a5.918,5.918,0,0,1-.77.563,5.981,5.981,0,0,1-.852.446,5.845,5.845,0,0,1,.774-.565A5.92,5.92,0,0,1,322.85,48.887Z" transform="translate(-321.226 -48.886)" fill="#fff"/>
                  </g>
                  <g id="Group_46005" data-name="Group 46005" transform="translate(6.075 4.612)">
                    <line id="Line_1537" data-name="Line 1537" x1="1.849" y2="0.478" transform="translate(0 0)" fill="#fff"/>
                    <path id="Path_28273" data-name="Path 28273" d="M323.346,49.772a5.823,5.823,0,0,1-.905.311,6,6,0,0,1-.944.168,5.99,5.99,0,0,1,.909-.307A5.455,5.455,0,0,1,323.346,49.772Z" transform="translate(-321.497 -49.772)" fill="#fff"/>
                  </g>
                  <g id="Group_46006" data-name="Group 46006" transform="translate(6.222 6.362)">
                    <line id="Line_1538" data-name="Line 1538" x1="1.907" y1="0.097" transform="translate(0 0.034)" fill="#fff"/>
                    <path id="Path_28274" data-name="Path 28274" d="M323.48,50.8a6.617,6.617,0,0,1-1.908-.1,5.44,5.44,0,0,1,.96-.025A5.8,5.8,0,0,1,323.48,50.8Z" transform="translate(-321.572 -50.667)" fill="#fff"/>
                  </g>
                  <g id="Group_46007" data-name="Group 46007" transform="translate(5.967 7.68)">
                    <line id="Line_1539" data-name="Line 1539" x1="1.793" y1="0.663" transform="translate(0.001)" fill="#fff"/>
                    <path id="Path_28275" data-name="Path 28275" d="M323.235,52a5.9,5.9,0,0,1-.923-.264,5.7,5.7,0,0,1-.87-.4,6.676,6.676,0,0,1,1.793.663Z" transform="translate(-321.442 -51.341)" fill="#fff"/>
                  </g>
                </g>
                <g id="Group_46021" data-name="Group 46021" transform="translate(0 0.588)">
                  <g id="Group_46009" data-name="Group 46009" transform="translate(9.335 8.233)">
                    <line id="Line_1540" data-name="Line 1540" x1="1.389" y1="1.308" transform="translate(0 0.001)" fill="#fff"/>
                    <path id="Path_28276" data-name="Path 28276" d="M322.219,53.233a6.118,6.118,0,0,1-.743-.6,6.517,6.517,0,0,1-.645-.708,6.414,6.414,0,0,1,1.388,1.308Z" transform="translate(-320.831 -51.925)" fill="#fff"/>
                  </g>
                  <g id="Group_46010" data-name="Group 46010" transform="translate(7.925 9.245)">
                    <line id="Line_1541" data-name="Line 1541" x1="0.762" y1="1.748" fill="#fff"/>
                    <path id="Path_28277" data-name="Path 28277" d="M320.872,54.191a5.234,5.234,0,0,1-.448-.847,5.721,5.721,0,0,1-.315-.9,5.839,5.839,0,0,1,.444.848A5.344,5.344,0,0,1,320.872,54.191Z" transform="translate(-320.109 -52.443)" fill="#fff"/>
                  </g>
                  <g id="Group_46011" data-name="Group 46011" transform="translate(6.65 9.59)">
                    <line id="Line_1542" data-name="Line 1542" x1="0.206" y1="1.897" transform="translate(0.008 0.001)" fill="#fff"/>
                    <path id="Path_28278" data-name="Path 28278" d="M319.67,54.517a6.088,6.088,0,0,1-.172-.938,6.277,6.277,0,0,1-.033-.96,6.434,6.434,0,0,1,.205,1.9Z" transform="translate(-319.457 -52.619)" fill="#fff"/>
                  </g>
                  <g id="Group_46012" data-name="Group 46012" transform="translate(4.973 9.545)">
                    <line id="Line_1543" data-name="Line 1543" y1="1.873" x2="0.376" transform="translate(0 0)" fill="#fff"/>
                    <path id="Path_28279" data-name="Path 28279" d="M318.6,54.469a6.073,6.073,0,0,1,.117-.95,5.881,5.881,0,0,1,.258-.923,5.467,5.467,0,0,1-.119.948A5.81,5.81,0,0,1,318.6,54.469Z" transform="translate(-318.6 -52.596)" fill="#fff"/>
                  </g>
                  <g id="Group_46013" data-name="Group 46013" transform="translate(3.196 9.107)">
                    <line id="Line_1544" data-name="Line 1544" y1="1.678" x2="0.915" transform="translate(0 0.001)" fill="#fff"/>
                    <path id="Path_28280" data-name="Path 28280" d="M317.691,54.051a5.37,5.37,0,0,1,.393-.878,6.1,6.1,0,0,1,.522-.8,5.771,5.771,0,0,1-.4.874A6.111,6.111,0,0,1,317.691,54.051Z" transform="translate(-317.69 -52.372)" fill="#fff"/>
                  </g>
                  <g id="Group_46014" data-name="Group 46014" transform="translate(1.687 8.321)">
                    <line id="Line_1545" data-name="Line 1545" y1="1.322" x2="1.376" transform="translate(0 0)" fill="#fff"/>
                    <path id="Path_28281" data-name="Path 28281" d="M316.919,53.292a5.965,5.965,0,0,1,.637-.712,5.726,5.726,0,0,1,.739-.61,6.139,6.139,0,0,1-.639.714A5.966,5.966,0,0,1,316.919,53.292Z" transform="translate(-316.919 -51.97)" fill="#fff"/>
                  </g>
                  <g id="Group_46015" data-name="Group 46015" transform="translate(0.59 7.254)">
                    <line id="Line_1546" data-name="Line 1546" y1="0.851" x2="1.705" transform="translate(0 0.001)" fill="#fff"/>
                    <path id="Path_28282" data-name="Path 28282" d="M316.358,52.276a6.447,6.447,0,0,1,1.7-.852,6.156,6.156,0,0,1-.821.491A6.078,6.078,0,0,1,316.358,52.276Z" transform="translate(-316.358 -51.424)" fill="#fff"/>
                  </g>
                  <g id="Group_46016" data-name="Group 46016" transform="translate(0 6.008)">
                    <line id="Line_1547" data-name="Line 1547" y1="0.301" x2="1.887" transform="translate(0 0.001)" fill="#fff"/>
                    <path id="Path_28283" data-name="Path 28283" d="M316.056,51.088a6.244,6.244,0,0,1,.931-.221,5.552,5.552,0,0,1,.956-.08,5.835,5.835,0,0,1-.931.219A5.6,5.6,0,0,1,316.056,51.088Z" transform="translate(-316.056 -50.787)" fill="#fff"/>
                  </g>
                  <g id="Group_46017" data-name="Group 46017" transform="translate(0.033 4.455)">
                    <line id="Line_1548" data-name="Line 1548" x2="1.897" y2="0.242" transform="translate(0 0.002)" fill="#fff"/>
                    <path id="Path_28284" data-name="Path 28284" d="M316.073,50a6.254,6.254,0,0,1,.958.053,5.684,5.684,0,0,1,.94.19,6.043,6.043,0,0,1-.962-.049A5.817,5.817,0,0,1,316.073,50Z" transform="translate(-316.073 -49.993)" fill="#fff"/>
                  </g>
                  <g id="Group_46018" data-name="Group 46018" transform="translate(0.577 2.716)">
                    <line id="Line_1549" data-name="Line 1549" x2="1.753" y2="0.755" fill="#fff"/>
                    <path id="Path_28285" data-name="Path 28285" d="M316.351,49.1a5.742,5.742,0,0,1,.905.309,6.053,6.053,0,0,1,.848.446,5.777,5.777,0,0,1-.907-.313A6.335,6.335,0,0,1,316.351,49.1Z" transform="translate(-316.351 -49.103)" fill="#fff"/>
                  </g>
                  <g id="Group_46019" data-name="Group 46019" transform="translate(1.562 1.208)">
                    <line id="Line_1550" data-name="Line 1550" x2="1.479" y2="1.212" transform="translate(0)" fill="#fff"/>
                    <path id="Path_28286" data-name="Path 28286" d="M316.855,48.332a5.825,5.825,0,0,1,.784.551,5.149,5.149,0,0,1,.7.659,5.821,5.821,0,0,1-.784-.551A5.676,5.676,0,0,1,316.855,48.332Z" transform="translate(-316.855 -48.331)" fill="#fff"/>
                  </g>
                  <g id="Group_46020" data-name="Group 46020" transform="translate(2.971)">
                    <line id="Line_1551" data-name="Line 1551" x2="1.08" y2="1.575" fill="#fff"/>
                    <path id="Path_28287" data-name="Path 28287" d="M317.576,47.714a5.219,5.219,0,0,1,.6.749,5.329,5.329,0,0,1,.483.825,5.4,5.4,0,0,1-.6-.745A5.2,5.2,0,0,1,317.576,47.714Z" transform="translate(-317.576 -47.713)" fill="#fff"/>
                  </g>
                </g>
              </g>
              <path id="Path_28288" data-name="Path 28288" d="M326.358,52.552a4.742,4.742,0,1,1-4.985-4.485A4.744,4.744,0,0,1,326.358,52.552Z" transform="translate(-312.355 -43.538)" fill="#292839"/>
              <g id="Group_46023" data-name="Group 46023" transform="translate(5.959 1.62)">
                <path id="Path_28289" data-name="Path 28289" d="M323.274,48.338a1.86,1.86,0,1,1-1.953-1.759A1.857,1.857,0,0,1,323.274,48.338Z" transform="translate(-315.758 -46.576)" fill="#fff"/>
                <path id="Path_28290" data-name="Path 28290" d="M319.157,54.3a.772.772,0,0,1-1.542.078.772.772,0,1,1,1.542-.078Z" transform="translate(-317.613 -39.905)" fill="#fff"/>
              </g>
            </g>
            <g id="Group_46029" data-name="Group 46029" transform="translate(18.263 35.173)">
              <g id="Group_46026" data-name="Group 46026">
                <path id="Path_28291" data-name="Path 28291" d="M317.155,59.722l.348.285-.625.838-.366-.281.625-.829" transform="translate(-316.28 -59.649)" fill="#858585"/>
                <g id="Group_46025" data-name="Group 46025">
                  <path id="Path_28292" data-name="Path 28292" d="M317.372,59.728a.876.876,0,0,0-.749.094.589.589,0,0,0,0,.933c.018.016.027.031.041.043Z" transform="translate(-316.393 -59.685)" fill="#858585"/>
                  <path id="Path_28293" data-name="Path 28293" d="M317.441,59.847a.456.456,0,0,0-.061-.068l-.764,1.06a.659.659,0,0,0,.825-.991Z" transform="translate(-316.18 -59.594)" fill="#858585"/>
                </g>
              </g>
              <g id="Group_46028" data-name="Group 46028" transform="translate(0.086 0.002)">
                <path id="Path_28294" data-name="Path 28294" d="M317.155,59.722l.348.285-.625.838-.366-.281.625-.829" transform="translate(-316.366 -59.651)" fill="#babab9"/>
                <path id="Path_28295" data-name="Path 28295" d="M317.263,59.808l-.649.834.13.093.6-.868Z" transform="translate(-316.269 -59.569)" fill="#a1a0a0"/>
                <g id="Group_46027" data-name="Group 46027">
                  <path id="Path_28296" data-name="Path 28296" d="M317.33,59.728a.661.661,0,0,0-.753,1.026.292.292,0,0,0,.041.043Z" transform="translate(-316.437 -59.685)" fill="#59584f"/>
                  <path id="Path_28297" data-name="Path 28297" d="M317.441,59.847a.456.456,0,0,0-.061-.068l-.764,1.06a.659.659,0,0,0,.825-.991Z" transform="translate(-316.267 -59.596)" fill="#59584f"/>
                </g>
              </g>
            </g>
            <g id="Group_46034" data-name="Group 46034" transform="translate(31.797 33.832)">
              <g id="Group_46031" data-name="Group 46031" transform="translate(0.001)">
                <path id="Path_28298" data-name="Path 28298" d="M323.346,59.489l.24-.375.912.514-.236.395-.9-.52" transform="translate(-323.288 -58.889)" fill="#858585"/>
                <g id="Group_46030" data-name="Group 46030">
                  <path id="Path_28299" data-name="Path 28299" d="M323.333,59.255a.877.877,0,0,0,.186.733.588.588,0,0,0,.929-.113.166.166,0,0,1,.039-.045Z" transform="translate(-323.316 -58.754)" fill="#858585"/>
                  <path id="Path_28300" data-name="Path 28300" d="M323.444,59.195a.532.532,0,0,0-.061.068l1.142.626a.655.655,0,0,0-1.081-.694Z" transform="translate(-323.253 -58.999)" fill="#858585"/>
                </g>
              </g>
              <g id="Group_46033" data-name="Group 46033">
                <path id="Path_28301" data-name="Path 28301" d="M323.346,59.489l.24-.375.912.514-.236.395-.9-.52" transform="translate(-323.287 -58.889)" fill="#babab9"/>
                <path id="Path_28302" data-name="Path 28302" d="M323.418,59.233l.9.541.084-.139-.934-.487Z" transform="translate(-323.219 -58.856)" fill="#a1a0a0"/>
                <g id="Group_46032" data-name="Group 46032">
                  <path id="Path_28303" data-name="Path 28303" d="M323.334,59.255a.677.677,0,0,0,.178.628.665.665,0,0,0,.936-.008.38.38,0,0,1,.039-.045Z" transform="translate(-323.316 -58.754)" fill="#59584f"/>
                  <path id="Path_28304" data-name="Path 28304" d="M323.444,59.195a.532.532,0,0,0-.061.068l1.142.626a.655.655,0,0,0-1.081-.694Z" transform="translate(-323.252 -58.999)" fill="#59584f"/>
                </g>
              </g>
            </g>
            <g id="Group_46039" data-name="Group 46039" transform="translate(40.539 23.254)">
              <g id="Group_46036" data-name="Group 46036">
                <path id="Path_28305" data-name="Path 28305" d="M328,53.688l.452-.044.151,1.035-.459.059L328,53.706" transform="translate(-327.586 -53.535)" fill="#858585"/>
                <g id="Group_46035" data-name="Group 46035">
                  <path id="Path_28306" data-name="Path 28306" d="M328.258,53.619a.872.872,0,0,0-.465.592.589.589,0,0,0,.661.661.29.29,0,0,0,.055.006Z" transform="translate(-327.788 -53.558)" fill="#858585"/>
                  <path id="Path_28307" data-name="Path 28307" d="M328.248,53.594a.687.687,0,0,0-.088-.006l.207,1.29a.659.659,0,0,0-.119-1.284Z" transform="translate(-327.432 -53.588)" fill="#858585"/>
                </g>
              </g>
              <g id="Group_46038" data-name="Group 46038" transform="translate(0.08)">
                <path id="Path_28308" data-name="Path 28308" d="M328,53.688l.452-.044.151,1.035-.459.059L328,53.706" transform="translate(-327.667 -53.535)" fill="#babab9"/>
                <path id="Path_28309" data-name="Path 28309" d="M328.136,53.659l.128,1.041.159-.02-.195-1.033Z" transform="translate(-327.535 -53.531)" fill="#a1a0a0"/>
                <g id="Group_46037" data-name="Group 46037">
                  <path id="Path_28310" data-name="Path 28310" d="M328.218,53.619a.657.657,0,0,0,.2,1.253.18.18,0,0,0,.055.006Z" transform="translate(-327.829 -53.558)" fill="#59584f"/>
                  <path id="Path_28311" data-name="Path 28311" d="M328.248,53.594a.687.687,0,0,0-.088-.006l.207,1.29a.659.659,0,0,0-.119-1.284Z" transform="translate(-327.513 -53.588)" fill="#59584f"/>
                </g>
              </g>
            </g>
            <g id="Group_46044" data-name="Group 46044" transform="translate(38.14 8.587)">
              <g id="Group_46041" data-name="Group 46041" transform="translate(0)">
                <path id="Path_28312" data-name="Path 28312" d="M326.589,46.66l.167-.422.992.333-.154.437-.987-.339" transform="translate(-326.533 -45.94)" fill="#858585"/>
                <g id="Group_46040" data-name="Group 46040">
                  <path id="Path_28313" data-name="Path 28313" d="M326.561,46.407a.873.873,0,0,0,.321.684.586.586,0,0,0,.886-.289.391.391,0,0,0,.031-.055Z" transform="translate(-326.561 -45.778)" fill="#858585"/>
                  <path id="Path_28314" data-name="Path 28314" d="M326.64,46.378a.424.424,0,0,0-.045.082l1.241.393a.658.658,0,0,0-1.2-.475Z" transform="translate(-326.528 -46.085)" fill="#858585"/>
                </g>
              </g>
              <g id="Group_46043" data-name="Group 46043">
                <path id="Path_28315" data-name="Path 28315" d="M326.589,46.66l.167-.422.992.333-.154.437-.987-.339" transform="translate(-326.533 -45.94)" fill="#babab9"/>
                <path id="Path_28316" data-name="Path 28316" d="M326.639,46.372l.993.359.055-.154-1.011-.3Z" transform="translate(-326.486 -45.901)" fill="#a1a0a0"/>
                <g id="Group_46042" data-name="Group 46042">
                  <path id="Path_28317" data-name="Path 28317" d="M326.561,46.407a.665.665,0,0,0,.3.581.658.658,0,0,0,.911-.186.3.3,0,0,0,.031-.055Z" transform="translate(-326.561 -45.778)" fill="#59584f"/>
                  <path id="Path_28318" data-name="Path 28318" d="M326.64,46.378a.424.424,0,0,0-.045.082l1.241.393a.658.658,0,0,0-1.2-.475Z" transform="translate(-326.528 -46.085)" fill="#59584f"/>
                </g>
              </g>
            </g>
            <g id="Group_46052" data-name="Group 46052" transform="translate(28.281 1.041)">
              <g id="Group_46046" data-name="Group 46046">
                <path id="Path_28319" data-name="Path 28319" d="M321.709,42.356l.44-.081.238,1.02-.451.1-.229-1.015" transform="translate(-321.337 -42.178)" fill="#858585"/>
                <g id="Group_46045" data-name="Group 46045">
                  <path id="Path_28320" data-name="Path 28320" d="M321.935,42.269a.871.871,0,0,0-.416.631.592.592,0,0,0,.716.6c.016,0,.037,0,.057,0Z" transform="translate(-321.518 -42.184)" fill="#858585"/>
                  <path id="Path_28321" data-name="Path 28321" d="M321.949,42.227a.321.321,0,0,0-.088,0l.313,1.265a.658.658,0,0,0-.225-1.269Z" transform="translate(-321.19 -42.225)" fill="#858585"/>
                </g>
              </g>
              <g id="Group_46051" data-name="Group 46051" transform="translate(0.078)">
                <path id="Path_28322" data-name="Path 28322" d="M321.709,42.356l.44-.081.238,1.02-.451.1-.229-1.015" transform="translate(-321.416 -42.178)" fill="#babab9"/>
                <path id="Path_28323" data-name="Path 28323" d="M321.84,42.3l.218,1.029.16-.034-.279-1.013Z" transform="translate(-321.288 -42.171)" fill="#a1a0a0"/>
                <g id="Group_46050" data-name="Group 46050">
                  <g id="Group_46049" data-name="Group 46049">
                    <g id="Group_46047" data-name="Group 46047" transform="translate(0 0.085)">
                      <path id="Path_28324" data-name="Path 28324" d="M321.9,42.269a.646.646,0,0,0-.338.553.659.659,0,0,0,.637.68.549.549,0,0,0,.057,0Z" transform="translate(-321.558 -42.269)" fill="#59584f"/>
                    </g>
                    <g id="Group_46048" data-name="Group 46048" transform="translate(0.593)">
                      <path id="Path_28325" data-name="Path 28325" d="M321.949,42.227a.321.321,0,0,0-.088,0l.313,1.265a.658.658,0,0,0-.225-1.269Z" transform="translate(-321.861 -42.225)" fill="#59584f"/>
                    </g>
                  </g>
                </g>
              </g>
            </g>
            <g id="Group_46060" data-name="Group 46060" transform="translate(14.374 2.735)">
              <g id="Group_46054" data-name="Group 46054">
                <path id="Path_28326" data-name="Path 28326" d="M315.167,43.128l.349.286-.623.841-.37-.283.628-.834" transform="translate(-314.29 -43.058)" fill="#858585"/>
                <g id="Group_46053" data-name="Group 46053">
                  <path id="Path_28327" data-name="Path 28327" d="M315.383,43.139a.874.874,0,0,0-.751.088.592.592,0,0,0,0,.934c.018.016.027.031.041.043Z" transform="translate(-314.404 -43.092)" fill="#858585"/>
                  <path id="Path_28328" data-name="Path 28328" d="M315.452,43.253a.64.64,0,0,0-.059-.066l-.764,1.058a.658.658,0,0,0,.823-.991Z" transform="translate(-314.189 -43.002)" fill="#858585"/>
                </g>
              </g>
              <g id="Group_46059" data-name="Group 46059" transform="translate(0.087 0.002)">
                <path id="Path_28329" data-name="Path 28329" d="M315.167,43.128l.349.286-.623.841-.37-.283.628-.834" transform="translate(-314.377 -43.06)" fill="#babab9"/>
                <path id="Path_28330" data-name="Path 28330" d="M315.275,43.215l-.649.826.13.1.6-.869Z" transform="translate(-314.28 -42.977)" fill="#a1a0a0"/>
                <g id="Group_46058" data-name="Group 46058">
                  <g id="Group_46057" data-name="Group 46057">
                    <g id="Group_46055" data-name="Group 46055">
                      <path id="Path_28331" data-name="Path 28331" d="M315.341,43.138a.654.654,0,0,0-.643.1.665.665,0,0,0-.109.927c.018.018.027.031.041.043Z" transform="translate(-314.449 -43.093)" fill="#59584f"/>
                    </g>
                    <g id="Group_46056" data-name="Group 46056" transform="translate(0.353 0.183)">
                      <path id="Path_28332" data-name="Path 28332" d="M315.452,43.253a.64.64,0,0,0-.059-.066l-.764,1.058a.658.658,0,0,0,.823-.991Z" transform="translate(-314.629 -43.187)" fill="#59584f"/>
                    </g>
                  </g>
                </g>
              </g>
            </g>
            <g id="Group_46065" data-name="Group 46065" transform="translate(5.949 13.414)">
              <g id="Group_46062" data-name="Group 46062">
                <path id="Path_28333" data-name="Path 28333" d="M310.857,48.59l.35.286-.63.842-.364-.282.63-.83" transform="translate(-309.982 -48.52)" fill="#858585"/>
                <g id="Group_46061" data-name="Group 46061">
                  <path id="Path_28334" data-name="Path 28334" d="M311.069,48.6a.857.857,0,0,0-.743.094.59.59,0,0,0,0,.936.245.245,0,0,1,.039.039Z" transform="translate(-310.094 -48.554)" fill="#858585"/>
                  <path id="Path_28335" data-name="Path 28335" d="M311.145,48.716a.4.4,0,0,0-.063-.065l-.764,1.056a.66.66,0,0,0,.827-.991Z" transform="translate(-309.881 -48.462)" fill="#858585"/>
                </g>
              </g>
              <g id="Group_46064" data-name="Group 46064" transform="translate(0.086 0.003)">
                <path id="Path_28336" data-name="Path 28336" d="M310.857,48.59l.35.286-.63.842-.364-.282.63-.83" transform="translate(-310.068 -48.522)" fill="#babab9"/>
                <path id="Path_28337" data-name="Path 28337" d="M310.961,48.676l-.644.831.125.1.6-.867Z" transform="translate(-309.968 -48.44)" fill="#a1a0a0"/>
                <g id="Group_46063" data-name="Group 46063">
                  <path id="Path_28338" data-name="Path 28338" d="M311.027,48.6a.66.66,0,0,0-.747,1.03l.039.039Z" transform="translate(-310.138 -48.556)" fill="#59584f"/>
                  <path id="Path_28339" data-name="Path 28339" d="M311.145,48.716a.4.4,0,0,0-.063-.065l-.764,1.056a.66.66,0,0,0,.827-.991Z" transform="translate(-309.967 -48.465)" fill="#59584f"/>
                </g>
              </g>
            </g>
            <path id="Path_28340" data-name="Path 28340" d="M314.721,46.719s-2.659,22.793,23.536,21.462l-1.787,6.2a20.94,20.94,0,0,1-10.311.886c-9.11-1.587-20.338-8.381-15.6-25.81C310.557,49.454,311.994,48.43,314.721,46.719Z" transform="translate(-304.775 -36.893)" fill="#221e20" opacity="0.1"/>
          </g>
          <g id="Group_46070" data-name="Group 46070" transform="translate(43.457 42.55)">
            <g id="Group_46067" data-name="Group 46067" transform="translate(0.946 0.188)">
              <path id="Path_28341" data-name="Path 28341" d="M318.042,71.658s-9.415,2.418-.477,10.3c0,0,4.95,5.415,19.155,3.368,0,0,16.4-2.193,16.619-15.884,0,0,.893-9.575-4.86-11.39,0,0-3.806-.907-7.5,4.18a19.3,19.3,0,0,1-4.336,4.34s-1.414,1.406-5.349,2.557c-2.516.743-7.2,1.038-8.706,1.423A38.627,38.627,0,0,0,318.042,71.658Z" transform="translate(-313.712 -57.989)" fill="#2c2c3a"/>
            </g>
            <g id="Group_46069" data-name="Group 46069" transform="translate(0.949 0.188)">
              <path id="Path_28342" data-name="Path 28342" d="M351.5,60.343a5.685,5.685,0,0,0-3.018-2.291s-3.806-.907-7.5,4.18a19.305,19.305,0,0,1-4.336,4.34s-1.413,1.406-5.349,2.557c-2.516.743-7.2,1.038-8.706,1.423a38.63,38.63,0,0,0-4.549,1.107s-6.792,1.748-3.357,7.1C323.735,77.373,343.307,72.976,351.5,60.343Z" transform="translate(-313.714 -57.989)" fill="#fff"/>
              <path id="Path_28343" data-name="Path 28343" d="M329.8,78.011s13.5-1.81,16.168-12.363c-8.076,7.018-18.258,10.815-25.018,12.715A39.21,39.21,0,0,0,329.8,78.011Z" transform="translate(-306.8 -50.675)" fill="#fff"/>
              <g id="Group_46068" data-name="Group 46068" transform="translate(0 2.653)">
                <path id="Path_28344" data-name="Path 28344" d="M345.156,60.478a29.689,29.689,0,0,1-11.738,8.457,83.792,83.792,0,0,1-19.659,5.155,4.78,4.78,0,0,0,.925,3.374c8.543-1.312,26.459-5.3,35.33-16.373C348.96,59.825,347.023,58.222,345.156,60.478Z" transform="translate(-313.714 -59.346)" fill="#fff"/>
              </g>
            </g>
            <path id="Path_28345" data-name="Path 28345" d="M340.529,85.486a24.073,24.073,0,0,1-3.65.872c-13.994,2.01-19.19-3.073-19.626-3.523-3.06-2.7-4.385-5.132-3.941-7.229.545-2.559,3.533-3.681,4.44-3.959.106-.033.18-.053.211-.063a40.16,40.16,0,0,1,4.592-1.122c.641-.16,1.765-.3,3.065-.461a41.247,41.247,0,0,0,5.6-.94c3.7-1.085,5.095-2.41,5.108-2.428l.037-.037.053-.027a18.536,18.536,0,0,0,4.184-4.2,10.662,10.662,0,0,1,5.29-4.164,5.7,5.7,0,0,1,2.8-.235l.041.01c6.033,1.908,5.312,11.309,5.253,11.959C353.819,79.871,345.489,83.941,340.529,85.486ZM318.088,72.729c-.536.16-3.239,1.1-3.669,3.108-.348,1.648.9,3.777,3.6,6.158l.045.053a11.186,11.186,0,0,0,4.117,2.332c2.68.96,7.378,1.885,14.539.86a24.2,24.2,0,0,0,3.472-.837c4.665-1.451,12.516-5.275,12.66-14.5l0-.043c.006-.1.778-9.112-4.442-10.791a4.8,4.8,0,0,0-2.186.215,9.705,9.705,0,0,0-4.711,3.75,19.838,19.838,0,0,1-4.442,4.455,14.263,14.263,0,0,1-5.54,2.657,40.924,40.924,0,0,1-5.781.977c-1.273.16-2.375.3-2.948.446l-.037,0a39.122,39.122,0,0,0-4.473,1.093l-.016.008-.018.006C318.258,72.678,318.2,72.694,318.088,72.729Z" transform="translate(-313.228 -57.893)" fill="#8266bf"/>
          </g>
          <g id="Group_46071" data-name="Group 46071" transform="translate(34.956 1.648)">
            <path id="Path_28346" data-name="Path 28346" d="M308.88,46.152s5.685-6.541,18.3-8.051C327.177,38.1,313.367,32.528,308.88,46.152Z" transform="translate(-308.88 -36.969)" fill="#fff"/>
            <path id="Path_28347" data-name="Path 28347" d="M327.03,38.046c-1.48-.547-13.933-4.7-18.15,8.107,0,0,2.586-4.805,7.03-6.731C319.279,37.96,324.635,37.96,327.03,38.046Z" transform="translate(-308.88 -36.971)" fill="#fff" opacity="0.15"/>
          </g>
          <g id="Group_46076" data-name="Group 46076" transform="translate(0 11.474)">
            <g id="Group_46075" data-name="Group 46075">
              <g id="Group_46072" data-name="Group 46072" transform="translate(0.176)">
                <path id="Path_28348" data-name="Path 28348" d="M304.2,67.165a4.851,4.851,0,0,0-.379,1.128,1.8,1.8,0,0,0-1.124-.373,57.593,57.593,0,0,0-6.127-13.607,3.557,3.557,0,0,1,.117-2.24A5.574,5.574,0,0,0,296.7,48.8a8.983,8.983,0,0,1-3.818-.276l.131-1.636a2.407,2.407,0,0,0,.682.061,2.476,2.476,0,1,0-1.429-.364l-.192,2.67a9.9,9.9,0,0,0,4.131.272s.121.383-.311,1.314a4.6,4.6,0,0,0,.145,3.486s.117.225.321.628l2.782,5.8a38.955,38.955,0,0,1,2.688,7.394,1.814,1.814,0,0,0,.469,3.353c.85.268,1.849-.364,2.018.07a6.132,6.132,0,0,0,2.315,2.084A16.179,16.179,0,0,0,304.2,67.165Z" transform="translate(-291.089 -41.997)" fill="#fff"/>
              </g>
              <g id="Group_46074" data-name="Group 46074" transform="translate(13.679 23.851)">
                <g id="Group_46073" data-name="Group 46073">
                  <path id="Path_28349" data-name="Path 28349" d="M302.367,62.538c-.334-5.677-2.952-7.957-3.427-8.322a.144.144,0,0,0-.156.012,2.943,2.943,0,0,0-.788.97,16.712,16.712,0,0,1,2.571,6.844,6.839,6.839,0,0,0,1.7.6C302.338,62.654,302.367,62.579,302.367,62.538Z" transform="translate(-297.996 -54.198)" fill="#fff"/>
                </g>
              </g>
              <path id="Path_28350" data-name="Path 28350" d="M296.043,43.716a2.513,2.513,0,0,0-.084-.516,6.09,6.09,0,0,0-4.743-.129,2.469,2.469,0,0,0,.223,2.047,8.008,8.008,0,0,0,4.109.219A2.462,2.462,0,0,0,296.043,43.716Z" transform="translate(-290.913 -41.372)" fill="#fff"/>
              <path id="Path_28351" data-name="Path 28351" d="M295.843,45.24a2.593,2.593,0,0,0,.371-1.48,2.731,2.731,0,0,0-.082-.528,6.1,6.1,0,0,0-5-.168,2.626,2.626,0,0,0-.133.97,2.673,2.673,0,0,0,.242.97A8.076,8.076,0,0,0,295.843,45.24Z" transform="translate(-290.999 -41.412)" fill="#fff"/>
              <path id="Path_28352" data-name="Path 28352" d="M291.562,42.276" transform="translate(-290.462 -41.731)" fill="#fff"/>
              <path id="Path_28353" data-name="Path 28353" d="M299.06,58.169" transform="translate(-283.301 -26.554)" fill="#fff"/>
              <path id="Path_28354" data-name="Path 28354" d="M293.705,43.21c.039.135.027.258-.108.3s-.08-.094-.123-.227-.158-.215-.025-.258S293.662,43.079,293.705,43.21Z" transform="translate(-288.719 -41.023)" fill="#fff" opacity="0.7"/>
            </g>
          </g>
        </g>
      </g>
    </g>
  </g>
</svg>
